HIERARCHY
ROOT Hips
{
	OFFSET	0.00	0.00	0.00
	CHANNELS 6 Xposition Yposition Zposition Zrotation Xrotation Yrotation
	JOINT Spine
	{
		OFFSET	 0.000000	 0.059888	 0.006666
		CHANNELS 3 Zrotation Xrotation Yrotation
		JOINT Chest
		{
			OFFSET	 0.000000	 0.125681	-0.015911
			CHANNELS 3 Zrotation Xrotation Yrotation
			JOINT UpperChest
			{
				OFFSET	 0.000000	 0.122768	-0.001652
				CHANNELS 3 Zrotation Xrotation Yrotation
				JOINT Neck
				{
					OFFSET	 0.000000	 0.155865	 0.008735
					CHANNELS 3 Zrotation Xrotation Yrotation
					JOINT Head
					{
						OFFSET	 0.000000	 0.095969	-0.000410
						CHANNELS 3 Zrotation Xrotation Yrotation
						JOINT LeftEye
						{
							OFFSET	 0.015267	 0.059218	 0.021494
							CHANNELS 3 Zrotation Xrotation Yrotation
							End Site
							{
								OFFSET	 0.015267	 0.059218	 0.021494
							}
						}
						JOINT RightEye
						{
							OFFSET	-0.015267	 0.059218	 0.021494
							CHANNELS 3 Zrotation Xrotation Yrotation
							End Site
							{
								OFFSET	-0.015267	 0.059218	 0.021494
							}
						}
					}
				}
				JOINT LeftShoulder
				{
					OFFSET	 0.025383	 0.124268	 0.007699
					CHANNELS 3 Zrotation Xrotation Yrotation
					JOINT LeftUpperArm
					{
						OFFSET	 0.136062	 0.000000	 0.000000
						CHANNELS 3 Zrotation Xrotation Yrotation
						JOINT LeftLowerArm
						{
							OFFSET	 0.225446	 0.000000	 0.000000
							CHANNELS 3 Zrotation Xrotation Yrotation
							JOINT LeftHand
							{
								OFFSET	 0.256325	 0.000003	 0.000015
								CHANNELS 3 Zrotation Xrotation Yrotation
								JOINT LeftIndexProximal
								{
									OFFSET	 0.074229	 0.008101	 0.022282
									CHANNELS 3 Zrotation Xrotation Yrotation
									JOINT LeftIndexIntermediate
									{
										OFFSET	 0.037712	 0.000000	-0.000001
										CHANNELS 3 Zrotation Xrotation Yrotation
										JOINT LeftIndexDistal
										{
											OFFSET	 0.023218	 0.000022	 0.000021
											CHANNELS 3 Zrotation Xrotation Yrotation
											End Site
											{
												OFFSET	 0.023218	 0.000022	 0.000021
											}
										}
									}
								}
								JOINT LeftLittleProximal
								{
									OFFSET	 0.069261	 0.008101	-0.033073
									CHANNELS 3 Zrotation Xrotation Yrotation
									JOINT LeftLittleIntermediate
									{
										OFFSET	 0.035643	 0.000000	 0.000000
										CHANNELS 3 Zrotation Xrotation Yrotation
										JOINT LeftLittleDistal
										{
											OFFSET	 0.020542	 0.000000	 0.000000
											CHANNELS 3 Zrotation Xrotation Yrotation
											End Site
											{
												OFFSET	 0.020542	 0.000000	 0.000000
											}
										}
									}
								}
								JOINT LeftMiddleProximal
								{
									OFFSET	 0.075240	 0.008101	 0.002320
									CHANNELS 3 Zrotation Xrotation Yrotation
									JOINT LeftMiddleIntermediate
									{
										OFFSET	 0.042007	 0.000000	 0.000000
										CHANNELS 3 Zrotation Xrotation Yrotation
										JOINT LeftMiddleDistal
										{
											OFFSET	 0.025915	 0.000000	 0.000000
											CHANNELS 3 Zrotation Xrotation Yrotation
											End Site
											{
												OFFSET	 0.025915	 0.000000	 0.000000
											}
										}
									}
								}
								JOINT LeftRingProximal
								{
									OFFSET	 0.074383	 0.008101	-0.015403
									CHANNELS 3 Zrotation Xrotation Yrotation
									JOINT LeftRingIntermediate
									{
										OFFSET	 0.038967	 0.000000	 0.000000
										CHANNELS 3 Zrotation Xrotation Yrotation
										JOINT LeftRingDistal
										{
											OFFSET	 0.022488	 0.000000	 0.000000
											CHANNELS 3 Zrotation Xrotation Yrotation
											End Site
											{
												OFFSET	 0.022488	 0.000000	 0.000000
											}
										}
									}
								}
								JOINT LeftThumbProximal
								{
									OFFSET	 0.003995	-0.010985	 0.018096
									CHANNELS 3 Zrotation Xrotation Yrotation
									JOINT LeftThumbIntermediate
									{
										OFFSET	 0.052819	-0.000008	-0.000074
										CHANNELS 3 Zrotation Xrotation Yrotation
										JOINT LeftThumbDistal
										{
											OFFSET	 0.032489	 0.000042	-0.000035
											CHANNELS 3 Zrotation Xrotation Yrotation
											End Site
											{
												OFFSET	 0.032489	 0.000042	-0.000035
											}
										}
									}
								}
							}
						}
					}
				}
				JOINT RightShoulder
				{
					OFFSET	-0.025383	 0.124268	 0.007699
					CHANNELS 3 Zrotation Xrotation Yrotation
					JOINT RightUpperArm
					{
						OFFSET	-0.136062	 0.000000	 0.000000
						CHANNELS 3 Zrotation Xrotation Yrotation
						JOINT RightLowerArm
						{
							OFFSET	-0.225446	 0.000000	 0.000000
							CHANNELS 3 Zrotation Xrotation Yrotation
							JOINT RightHand
							{
								OFFSET	-0.256325	 0.000003	 0.000015
								CHANNELS 3 Zrotation Xrotation Yrotation
								JOINT RightIndexProximal
								{
									OFFSET	-0.074229	 0.008101	 0.022282
									CHANNELS 3 Zrotation Xrotation Yrotation
									JOINT RightIndexIntermediate
									{
										OFFSET	-0.037712	 0.000000	-0.000001
										CHANNELS 3 Zrotation Xrotation Yrotation
										JOINT RightIndexDistal
										{
											OFFSET	-0.023218	 0.000022	 0.000021
											CHANNELS 3 Zrotation Xrotation Yrotation
											End Site
											{
												OFFSET	-0.023218	 0.000022	 0.000021
											}
										}
									}
								}
								JOINT RightLittleProximal
								{
									OFFSET	-0.069261	 0.008101	-0.033073
									CHANNELS 3 Zrotation Xrotation Yrotation
									JOINT RightLittleIntermediate
									{
										OFFSET	-0.035643	 0.000000	 0.000000
										CHANNELS 3 Zrotation Xrotation Yrotation
										JOINT RightLittleDistal
										{
											OFFSET	-0.020542	 0.000000	 0.000000
											CHANNELS 3 Zrotation Xrotation Yrotation
											End Site
											{
												OFFSET	-0.020542	 0.000000	 0.000000
											}
										}
									}
								}
								JOINT RightMiddleProximal
								{
									OFFSET	-0.075240	 0.008101	 0.002320
									CHANNELS 3 Zrotation Xrotation Yrotation
									JOINT RightMiddleIntermediate
									{
										OFFSET	-0.042007	 0.000000	 0.000000
										CHANNELS 3 Zrotation Xrotation Yrotation
										JOINT RightMiddleDistal
										{
											OFFSET	-0.025915	 0.000000	 0.000000
											CHANNELS 3 Zrotation Xrotation Yrotation
											End Site
											{
												OFFSET	-0.025915	 0.000000	 0.000000
											}
										}
									}
								}
								JOINT RightRingProximal
								{
									OFFSET	-0.074383	 0.008101	-0.015403
									CHANNELS 3 Zrotation Xrotation Yrotation
									JOINT RightRingIntermediate
									{
										OFFSET	-0.038967	 0.000000	 0.000000
										CHANNELS 3 Zrotation Xrotation Yrotation
										JOINT RightRingDistal
										{
											OFFSET	-0.022488	 0.000000	 0.000000
											CHANNELS 3 Zrotation Xrotation Yrotation
											End Site
											{
												OFFSET	-0.022488	 0.000000	 0.000000
											}
										}
									}
								}
								JOINT RightThumbProximal
								{
									OFFSET	-0.003995	-0.010985	 0.018096
									CHANNELS 3 Zrotation Xrotation Yrotation
									JOINT RightThumbIntermediate
									{
										OFFSET	-0.052819	-0.000008	-0.000074
										CHANNELS 3 Zrotation Xrotation Yrotation
										JOINT RightThumbDistal
										{
											OFFSET	-0.032489	 0.000042	-0.000035
											CHANNELS 3 Zrotation Xrotation Yrotation
											End Site
											{
												OFFSET	-0.032489	 0.000042	-0.000035
											}
										}
									}
								}
							}
						}
					}
				}
			}
		}
	}
	JOINT LeftUpperLeg
	{
		OFFSET	 0.087143	-0.045243	 0.001548
		CHANNELS 3 Zrotation Xrotation Yrotation
		JOINT LeftLowerLeg
		{
			OFFSET	 0.000000	-0.394432	-0.000001
			CHANNELS 3 Zrotation Xrotation Yrotation
			JOINT LeftFoot
			{
				OFFSET	 0.000000	-0.466446	 0.003058
				CHANNELS 3 Zrotation Xrotation Yrotation
				JOINT LeftToes
				{
					OFFSET	 0.000000	-0.079218	 0.140851
					CHANNELS 3 Zrotation Xrotation Yrotation
					End Site
					{
						OFFSET	 0.000000	-0.079218	 0.140851
					}
				}
			}
		}
	}
	JOINT RightUpperLeg
	{
		OFFSET	-0.087143	-0.045243	 0.001548
		CHANNELS 3 Zrotation Xrotation Yrotation
		JOINT RightLowerLeg
		{
			OFFSET	 0.000000	-0.394432	-0.000001
			CHANNELS 3 Zrotation Xrotation Yrotation
			JOINT RightFoot
			{
				OFFSET	 0.000000	-0.466446	 0.003058
				CHANNELS 3 Zrotation Xrotation Yrotation
				JOINT RightToes
				{
					OFFSET	 0.000000	-0.079218	 0.140851
					CHANNELS 3 Zrotation Xrotation Yrotation
					End Site
					{
						OFFSET	 0.000000	-0.079218	 0.140851
					}
				}
			}
		}
	}
}
MOTION
Frames:    4
Frame Time: 0.03333334
-0.211346	 1.105486	-0.267495	-0.626340	-7.775281	-2.239420	-0.544755	 18.185480	 6.206412	 1.548673	 10.912190	 0.139525	 0.000007	-12.397430	 0.000035	-1.779193	 9.629029	-0.107158	-2.291834	-5.188967	-3.763701	-1.701262	 3.587029	 21.748080	 1.701262	 3.587039	-21.748070	 4.066304	-7.560997	 12.906480	-65.107620	 28.637010	-10.696440	-14.587770	-23.966860	-120.636600	 1.751608	 6.434144	-2.668560	-0.012967	 0.667629	 1.112118	-1.679194	 1.282879	 0.674526	-0.334984	 1.286472	-0.711007	 0.000005	-0.000042	 0.000001	 0.000003	 0.000000	 0.000000	 0.890204	-0.008562	-1.101182	 0.000000	-0.000008	-0.000006	 0.000003	 0.000039	-0.000013	 0.000003	 0.000039	-0.000013	 0.000000	 0.000014	 0.000004	 0.000003	 0.000000	 0.000000	-0.712572	-0.008159	 1.310742	 86.198970	 49.487950	-89.646780	-2.573035	-0.739925	 0.463022	 4.590282	-0.705078	-0.717109	-1.087649	-7.575567	-12.255810	 55.680770	 24.732320	 9.628760	 13.759860	-19.047440	 109.579100	 2.881179	 10.969220	 15.580050	 0.012969	 0.667629	-1.112118	 1.679193	 1.282880	-0.674527	 0.334982	 1.286472	 0.711007	-0.000005	-0.000043	-0.000001	-0.000003	 0.000000	 0.000000	-0.890204	-0.008562	 1.101182	 0.000000	-0.000008	 0.000006	-0.000003	 0.000039	 0.000013	-0.000003	 0.000039	 0.000013	 0.000000	 0.000014	-0.000004	-0.000003	 0.000000	 0.000000	 0.712572	-0.008159	-1.310742	-86.198980	 49.487950	 89.646800	 2.573038	-0.739921	-0.463021	-4.590279	-0.705076	 0.717109	 17.398350	-48.703380	 13.247330	 4.948067	 43.282080	-7.197191	-0.029963	-0.632199	-6.661352	 0.000000	 0.248285	 0.000000	-7.055645	-46.351490	-5.117658	-9.684691	 31.863340	 17.777620	-0.093228	-2.534817	-2.472891	 0.000000	 0.248285	 0.000000
-0.212215	 1.106667	-0.268316	-0.789465	-7.853499	-2.793620	-0.401513	 18.301660	 6.652227	 1.863861	 11.026940	 0.139944	 0.000007	-12.397430	 0.000035	-2.292974	 9.691070	-0.112668	-2.326711	-4.302117	-4.183991	-1.701262	 3.587029	 21.748080	 1.701262	 3.587039	-21.748070	 3.409297	-7.663031	 13.131580	-65.173410	 28.593640	-10.282530	-14.514620	-22.125050	-119.994500	-0.607166	 6.385705	-2.827278	-0.012967	 0.667629	 1.112118	-1.679194	 1.282879	 0.674526	-0.334984	 1.286472	-0.711007	 0.000005	-0.000042	 0.000001	 0.000003	 0.000000	 0.000000	 0.890204	-0.008562	-1.101182	 0.000000	-0.000008	-0.000006	 0.000003	 0.000039	-0.000013	 0.000003	 0.000039	-0.000013	 0.000000	 0.000014	 0.000004	 0.000003	 0.000000	 0.000000	-0.712572	-0.008159	 1.310742	 86.198970	 49.487950	-89.646780	-2.573035	-0.739925	 0.463022	 4.590282	-0.705078	-0.717109	-1.857288	-7.681522	-12.268400	 56.672810	 25.296810	 10.249440	 13.432040	-18.523710	 107.019100	 2.555623	 11.125800	 15.979720	 0.012969	 0.667629	-1.112118	 1.679193	 1.282880	-0.674527	 0.334982	 1.286472	 0.711007	-0.000005	-0.000043	-0.000001	-0.000003	 0.000000	 0.000000	-0.890204	-0.008562	 1.101182	 0.000000	-0.000008	 0.000006	-0.000003	 0.000039	 0.000013	-0.000003	 0.000039	 0.000013	 0.000000	 0.000014	-0.000004	-0.000003	 0.000000	 0.000000	 0.712572	-0.008159	-1.310742	-86.198980	 49.487950	 89.646800	 2.573038	-0.739921	-0.463021	-4.590279	-0.705076	 0.717109	 17.412660	-49.168320	 13.349230	 6.109462	 43.588710	-8.824366	 0.063266	 0.376025	-4.811366	 0.000000	 0.248285	 0.000000	-7.371419	-43.887780	-5.124861	-10.502090	 33.352750	 18.535480	-0.158560	-5.742158	-1.694819	 0.000000	 0.248285	 0.000000
-0.213471	 1.104387	-0.266258	-0.386598	-6.618283	-3.026104	-0.469901	 17.760730	 6.905888	 1.817764	 10.499240	 0.150610	 0.000007	-12.397430	 0.000036	-2.854433	 9.739608	-0.129392	-2.133290	-3.634912	-3.836675	-1.701262	 3.587029	 21.748080	 1.701262	 3.587039	-21.748070	 3.455515	-7.336979	 12.972560	-64.610960	 28.483800	-10.538740	-14.483090	-20.559790	-118.404700	-4.404531	 7.786323	-3.211411	-0.012967	 0.667629	 1.112118	-1.679194	 1.282879	 0.674526	-0.334984	 1.286472	-0.711007	 0.000005	-0.000042	 0.000001	 0.000003	 0.000000	 0.000000	 0.890204	-0.008562	-1.101182	 0.000000	-0.000008	-0.000006	 0.000003	 0.000039	-0.000013	 0.000003	 0.000039	-0.000013	 0.000000	 0.000014	 0.000004	 0.000003	 0.000000	 0.000000	-0.712572	-0.008159	 1.310742	 86.198970	 49.487950	-89.646780	-2.573035	-0.739925	 0.463022	 4.590282	-0.705078	-0.717109	-1.700009	-7.360600	-11.799020	 57.023950	 25.636670	 11.051780	 12.549600	-18.072670	 104.028800	 2.896903	 13.062900	 16.395940	 0.012969	 0.667629	-1.112118	 1.679193	 1.282880	-0.674527	 0.334982	 1.286472	 0.711007	-0.000005	-0.000043	-0.000001	-0.000003	 0.000000	 0.000000	-0.890204	-0.008562	 1.101182	 0.000000	-0.000008	 0.000006	-0.000003	 0.000039	 0.000013	-0.000003	 0.000039	 0.000013	 0.000000	 0.000014	-0.000004	-0.000003	 0.000000	 0.000000	 0.712572	-0.008159	-1.310742	-86.198980	 49.487950	 89.646800	 2.573038	-0.739921	-0.463021	-4.590279	-0.705076	 0.717109	 17.309340	-52.036210	 13.804100	 7.865006	 46.016750	-10.867570	-0.005183	-0.465315	-3.308612	 0.000000	 0.248285	 0.000000	-8.521650	-44.384560	-5.983115	-12.166840	 37.634200	 19.435630	-0.015078	-10.048390	-0.089719	 0.000000	 0.248285	 0.000000
-0.215252	 1.101272	-0.262866	-0.184656	-4.192956	-2.144080	-0.123732	 16.700450	 5.903435	 1.722241	 9.462809	 0.167085	 0.000007	-12.397430	 0.000037	-3.117180	 9.808124	-0.115558	-1.697684	-3.342576	-2.758333	-1.701262	 3.587029	 21.748080	 1.701262	 3.587039	-21.748070	 3.726953	-6.696177	 12.306320	-63.474380	 28.401700	-11.743190	-13.575840	-19.283810	-114.454900	-7.496424	 11.213120	-5.614252	-0.012967	 0.667629	 1.112118	-1.679194	 1.282879	 0.674526	-0.334984	 1.286472	-0.711007	 0.000005	-0.000042	 0.000001	 0.000003	 0.000000	 0.000000	 0.890204	-0.008562	-1.101182	 0.000000	-0.000008	-0.000006	 0.000003	 0.000039	-0.000013	 0.000003	 0.000039	-0.000013	 0.000000	 0.000014	 0.000004	 0.000003	 0.000000	 0.000000	-0.712572	-0.008159	 1.310742	 86.198970	 49.487950	-89.646780	-2.573035	-0.739925	 0.463022	 4.590282	-0.705078	-0.717109	-1.101008	-6.719498	-11.052470	 56.244750	 25.883630	 12.523220	 10.815810	-16.680220	 99.267590	 3.367966	 17.655810	 15.441780	 0.012969	 0.667629	-1.112118	 1.679193	 1.282880	-0.674527	 0.334982	 1.286472	 0.711007	-0.000005	-0.000043	-0.000001	-0.000003	 0.000000	 0.000000	-0.890204	-0.008562	 1.101182	 0.000000	-0.000008	 0.000006	-0.000003	 0.000039	 0.000013	-0.000003	 0.000039	 0.000013	 0.000000	 0.000014	-0.000004	-0.000003	 0.000000	 0.000000	 0.712572	-0.008159	-1.310742	-86.198980	 49.487950	 89.646800	 2.573038	-0.739921	-0.463021	-4.590279	-0.705076	 0.717109	 17.223390	-55.338210	 14.304520	 9.284407	 47.790340	-12.446190	-0.093950	-2.149627	-3.032058	 0.000000	 0.248285	 0.000000	-10.432770	-47.041850	-7.674489	-12.470690	 41.208490	 18.556860	 0.434442	-12.192700	 2.120478	 0.000000	 0.248285	 0.000000
